<svg width="50" height="50" viewBox="0 0 50 50" fill="none" xmlns="http://www.w3.org/2000/svg">
<circle cx="25" cy="25" r="25" fill="#BEA04F"/>
<path fill-rule="evenodd" clip-rule="evenodd" d="M50 25C50 38.8071 38.8071 50 25 50C11.1929 50 0 38.8071 0 25C0 11.1929 11.1929 0 25 0C38.8071 0 50 11.1929 50 25ZM16.7412 22.7099C14.2368 23.8033 11.6636 24.9268 9.31068 26.2229L9.31051 26.2231C8.08188 27.1226 9.71498 27.7589 11.2469 28.3557C11.4905 28.4506 11.7315 28.5445 11.958 28.6383C12.1465 28.6962 12.3382 28.7573 12.5325 28.8192C14.2363 29.362 16.1362 29.9673 17.7903 29.0568C20.5076 27.4959 23.0719 25.6912 25.6342 23.888C26.4737 23.2972 27.313 22.7065 28.1574 22.1247C28.1969 22.0994 28.2416 22.0704 28.2904 22.0388C29.0097 21.5725 30.6275 20.5239 30.0291 21.9688C28.614 23.5163 27.0983 24.8862 25.5744 26.2635C24.5474 27.1918 23.5166 28.1234 22.5103 29.1151C21.6339 29.8271 20.7239 31.2592 21.7052 32.2563C23.9656 33.8387 26.2613 35.3827 28.5556 36.9259C29.3022 37.428 30.0486 37.93 30.7936 38.4332C32.0563 39.4413 34.0297 38.6259 34.3073 37.0505C34.4308 36.3257 34.5548 35.601 34.6787 34.8762C35.3637 30.8714 36.0489 26.8652 36.6542 22.8474C36.7365 22.2171 36.8297 21.5869 36.923 20.9564C37.1492 19.4281 37.3756 17.898 37.4463 16.3615C37.264 14.8283 35.4049 15.1654 34.3703 15.5102C29.0523 17.5337 23.7876 19.7072 18.5436 21.9191C17.9496 22.1823 17.3474 22.4452 16.7412 22.7099Z" fill="#F5F3EB"/>
</svg>
