<svg width="161" height="147" viewBox="0 0 161 147" fill="none" xmlns="http://www.w3.org/2000/svg">
<path fill-rule="evenodd" clip-rule="evenodd" d="M160.56 17.5851C162.865 6.34924 151.829 -2.98796 141.13 1.14577L9.98309 51.8161C-1.96479 56.4323 -2.49716 73.1397 9.13252 78.5069L37.6926 91.6888L51.279 139.241C51.9847 141.711 53.9448 143.623 56.4314 144.268C58.9181 144.912 61.5602 144.193 63.3766 142.376L84.305 121.447L113.622 143.435C122.132 149.817 134.389 145.168 136.526 134.748L160.56 17.5851ZM15.2089 65.3416L146.356 14.6714L122.322 131.835L87.975 106.074C85.0887 103.909 81.0498 104.197 78.4985 106.748L69.5346 115.712L72.228 100.899L125.001 48.126C127.57 45.5577 127.841 41.4852 125.637 38.5988C123.432 35.7122 119.432 34.9026 116.278 36.7047L43.3964 78.351L15.2089 65.3416ZM52.2828 89.9735L56.6791 105.361L58.367 96.0773C58.6308 94.6265 59.3308 93.2904 60.3736 92.2478L76.4678 76.1543L52.2828 89.9735Z" fill="#BEA04F"/>
</svg>
